<svg width="1532" height="242" viewBox="0 0 1532 242" fill="none" xmlns="http://www.w3.org/2000/svg">
<circle cx="111.031" cy="130.176" r="76.2243" transform="rotate(-67.8939 111.031 130.176)" stroke="white" stroke-width="18"/>
<circle cx="158.376" cy="129.031" r="76.2243" transform="rotate(-67.8939 158.376 129.031)" stroke="white" stroke-width="18"/>
<circle cx="204.917" cy="129.031" r="76.2243" transform="rotate(-67.8939 204.917 129.031)" stroke="white" stroke-width="18"/>
<path d="M429.999 55.8H448.599V194H425.399V93.8C417.199 101.8 407.999 101.8 396.399 101.8V85.2C421.399 85.2 428.599 72.8 429.999 55.8ZM526.446 197C487.446 197 470.846 164.2 470.846 125C470.846 85.8 487.446 52.8 526.446 52.8C565.446 52.8 582.046 85.8 582.046 125C582.046 164.2 565.446 197 526.446 197ZM526.446 177.2C550.846 177.2 558.846 153.8 558.846 125C558.846 96.2 550.846 72.6 526.446 72.6C502.046 72.6 493.846 96.2 493.846 125C493.846 153.8 502.046 177.2 526.446 177.2ZM652.618 197C613.618 197 597.018 164.2 597.018 125C597.018 85.8 613.618 52.8 652.618 52.8C691.618 52.8 708.218 85.8 708.218 125C708.218 164.2 691.618 197 652.618 197ZM652.618 177.2C677.018 177.2 685.018 153.8 685.018 125C685.018 96.2 677.018 72.6 652.618 72.6C628.218 72.6 620.018 96.2 620.018 125C620.018 153.8 628.218 177.2 652.618 177.2ZM778.79 197C739.79 197 723.19 164.2 723.19 125C723.19 85.8 739.79 52.8 778.79 52.8C817.79 52.8 834.39 85.8 834.39 125C834.39 164.2 817.79 197 778.79 197ZM778.79 177.2C803.19 177.2 811.19 153.8 811.19 125C811.19 96.2 803.19 72.6 778.79 72.6C754.39 72.6 746.19 96.2 746.19 125C746.19 153.8 754.39 177.2 778.79 177.2ZM846.562 91.8H870.362L893.562 127.8H893.962L917.162 91.8H940.962L906.562 141.8L944.762 194H920.362L893.962 155.6H893.562L867.562 194H842.962L881.162 141.8L846.562 91.8ZM993.043 194V51H1044.24C1085.64 51 1103.24 83.4 1103.24 123.2C1103.24 163.2 1084.24 194 1042.84 194H993.043ZM999.043 56.6V188.4H1042.64C1077.24 188.4 1096.84 163.6 1096.84 123.2C1096.84 82.8 1078.64 56.6 1044.04 56.6H999.043ZM1162.51 191C1186.31 191 1195.91 174.2 1198.31 163.2H1204.31C1199.91 182 1186.51 196.2 1162.51 196.2C1133.91 196.2 1115.91 175 1115.91 143C1115.91 109.6 1134.71 89.8 1162.31 89.8C1192.11 89.8 1205.71 112 1205.71 142H1121.91V143.2C1121.91 169.4 1135.51 191 1162.51 191ZM1162.31 95C1136.91 95 1122.51 115 1121.91 136.8H1199.71C1199.71 116.2 1188.11 95 1162.31 95ZM1258.51 137.2C1280.51 142.8 1294.71 147.6 1294.71 167.2C1294.71 184.4 1280.31 196.2 1258.31 196.2C1229.11 196.2 1215.51 181.4 1214.51 162H1220.51C1221.51 178.8 1234.31 191 1258.31 191C1274.91 191 1288.71 181.2 1288.71 168.2C1288.71 148.8 1272.11 146.8 1253.51 141.8C1232.71 136.2 1218.11 132.6 1218.11 115.4C1218.11 100 1231.51 89.8 1253.51 89.8C1278.71 89.8 1288.91 104.4 1291.11 118.6H1285.11C1282.91 107 1273.91 95 1253.51 95C1239.11 95 1224.11 101 1224.11 115.4C1224.11 129.2 1239.71 132.4 1258.51 137.2ZM1315.18 66.6C1312.98 66.6 1310.18 64.8 1310.18 61.8C1310.18 58.6 1312.98 57 1315.18 57C1317.58 57 1320.18 58.6 1320.18 61.8C1320.18 64.8 1317.58 66.6 1315.18 66.6ZM1312.18 91.2H1318.18V194H1312.18V91.2ZM1418.62 91.2H1424.62V188.4C1424.62 215.6 1407.82 228.2 1381.42 228.2C1355.42 228.2 1340.62 214.6 1339.02 199.2H1345.02C1347.22 211.4 1358.22 223 1381.42 223C1403.82 223 1418.62 212 1418.62 188.2V163.2H1418.22C1412.42 178 1397.62 188.2 1379.62 188.2C1357.22 188.2 1336.22 172.6 1336.22 139C1336.22 105.4 1357.22 89.8 1379.62 89.8C1397.62 89.8 1412.22 99.6 1418.22 115.4H1418.62V91.2ZM1381.02 183C1398.82 183 1418.62 169 1418.62 139C1418.62 109 1398.82 95 1381.02 95C1360.02 95 1342.22 109 1342.22 139C1342.22 169 1360.02 183 1381.02 183ZM1490.92 89.8C1506.92 89.8 1521.72 100.2 1521.72 120.4V194H1515.72V124.4C1515.72 109.2 1510.72 95 1488.12 95C1465.32 95 1451.92 112.2 1451.92 123.2V194H1445.92V91.2H1451.92V109.8H1452.32C1458.72 100 1469.32 89.8 1490.92 89.8Z" fill="white"/>
</svg>
