<svg width="1610" height="242" viewBox="0 0 1610 242" fill="none" xmlns="http://www.w3.org/2000/svg">
<circle cx="111.031" cy="130.176" r="76.2243" transform="rotate(-67.8939 111.031 130.176)" stroke="black" stroke-width="18"/>
<circle cx="158.376" cy="129.031" r="76.2243" transform="rotate(-67.8939 158.376 129.031)" stroke="black" stroke-width="18"/>
<circle cx="204.917" cy="129.031" r="76.2243" transform="rotate(-67.8939 204.917 129.031)" stroke="black" stroke-width="18"/>
<path d="M400.595 55.8H428.595V194H394.595V100.6C386.795 108.6 375.195 108.6 365.395 108.6V84.6C391.595 84.6 400.595 70.8 400.595 55.8ZM507.045 197.2C465.645 197.2 446.245 164.2 446.245 125C446.245 85.8 465.645 52.6 507.045 52.6C548.445 52.6 567.645 85.8 567.645 125C567.645 164.2 548.445 197.2 507.045 197.2ZM507.045 169.8C527.245 169.8 533.645 152.4 533.645 125C533.645 97.6 527.245 80 507.045 80C486.845 80 480.245 97.6 480.245 125C480.245 152.4 486.845 169.8 507.045 169.8ZM637.905 197.2C596.505 197.2 577.105 164.2 577.105 125C577.105 85.8 596.505 52.6 637.905 52.6C679.305 52.6 698.505 85.8 698.505 125C698.505 164.2 679.305 197.2 637.905 197.2ZM637.905 169.8C658.105 169.8 664.505 152.4 664.505 125C664.505 97.6 658.105 80 637.905 80C617.705 80 611.105 97.6 611.105 125C611.105 152.4 617.705 169.8 637.905 169.8ZM768.764 197.2C727.364 197.2 707.964 164.2 707.964 125C707.964 85.8 727.364 52.6 768.764 52.6C810.164 52.6 829.364 85.8 829.364 125C829.364 164.2 810.164 197.2 768.764 197.2ZM768.764 169.8C788.964 169.8 795.364 152.4 795.364 125C795.364 97.6 788.964 80 768.764 80C748.564 80 741.964 97.6 741.964 125C741.964 152.4 748.564 169.8 768.764 169.8ZM839.423 91.6H873.423L889.823 121.2H890.223L906.623 91.6H940.623L909.423 141.8L944.623 194H908.623L890.223 162.4H889.823L871.423 194H835.423L870.623 141.8L839.423 91.6ZM989.722 194V51H1053.12C1092.92 51 1116.92 76.6 1116.92 122.6C1116.92 168.6 1094.92 194 1055.12 194H989.722ZM1025.72 80.4V164.6H1049.52C1071.92 164.6 1080.92 148.6 1080.92 122.6C1080.92 96.6 1071.92 80.4 1049.52 80.4H1025.72ZM1178.14 173.2C1189.14 173.2 1194.34 168 1196.34 163H1228.14C1222.54 183.6 1206.54 197.2 1178.74 197.2C1144.74 197.2 1124.14 174.8 1124.14 142.8C1124.14 111.6 1144.34 88.4 1176.94 88.4C1211.94 88.4 1229.74 114 1229.74 151.2H1156.14C1156.14 165.6 1166.74 173.2 1178.14 173.2ZM1176.94 110.4C1164.74 110.4 1156.14 117.6 1156.14 131.8H1197.74C1197.74 117.6 1189.14 110.4 1176.94 110.4ZM1290.65 129.4C1310.85 133.8 1330.85 140.6 1330.85 163.8C1330.85 185.4 1314.45 197.2 1286.05 197.2C1249.45 197.2 1235.45 180.8 1234.45 160H1264.45C1265.45 170.2 1272.25 175.2 1284.85 175.2C1293.85 175.2 1298.85 172.2 1298.85 166.4C1298.85 157.6 1289.25 156.4 1273.05 152.8C1255.65 149 1236.45 142.6 1236.45 121.2C1236.45 102.6 1252.45 88.4 1281.25 88.4C1314.05 88.4 1326.85 105 1327.85 123H1297.85C1296.85 114.8 1292.45 110.4 1282.05 110.4C1273.05 110.4 1268.45 113.6 1268.45 118.6C1268.45 125.8 1274.85 126 1290.65 129.4ZM1357.43 79.4C1348.43 79.4 1341.43 74.6 1341.43 65.2C1341.43 56 1348.43 51 1357.43 51C1366.43 51 1373.43 56 1373.43 65.2C1373.43 74.6 1366.43 79.4 1357.43 79.4ZM1341.43 91.6H1373.43V194H1341.43V91.6ZM1455.89 91.6H1487.89V184C1487.89 217.8 1468.49 229.4 1437.49 229.4C1405.09 229.4 1390.09 212.6 1386.49 196.2H1418.49C1420.49 201.8 1425.49 206.4 1436.69 206.4C1451.09 206.4 1455.89 198.8 1455.89 181.8V175.8H1455.49C1451.49 181.2 1442.49 189.2 1427.49 189.2C1401.29 189.2 1384.49 168.4 1384.49 138.8C1384.49 109.2 1401.29 88.4 1427.49 88.4C1442.49 88.4 1451.49 96.4 1455.49 101.8H1455.89V91.6ZM1435.89 165.2C1448.89 165.2 1455.29 155.4 1455.29 138.8C1455.29 122.2 1448.89 112.4 1435.89 112.4C1422.89 112.4 1416.49 122.2 1416.49 138.8C1416.49 155.4 1422.89 165.2 1435.89 165.2ZM1569.54 88.4C1589.34 88.4 1602.74 101.4 1602.74 124.8V194H1570.74V135C1570.74 119.6 1565.34 114.4 1554.74 114.4C1542.54 114.4 1535.54 120.6 1535.54 134.8V194H1503.54V91.6H1535.54V106.4H1535.94C1541.34 97 1551.34 88.4 1569.54 88.4Z" fill="black"/>
</svg>
